<?xml version="1.0" encoding="UTF-8"?>
<svg width="512px" height="512px" viewBox="0 0 512 512" version="1.1" xmlns="http://www.w3.org/2000/svg" xmlns:xlink="http://www.w3.org/1999/xlink">
    <!-- Generator: Sketch 51.3 (57544) - http://www.bohemiancoding.com/sketch -->
    <title>MGQ_app_icon</title>
    <desc>Created with Sketch.</desc>
    <defs>
        <linearGradient x1="46.6949753%" y1="140.649491%" x2="46.6949753%" y2="-49.5989757%" id="linearGradient-1">
            <stop stop-color="#000000" stop-opacity="0" offset="0%"></stop>
            <stop stop-color="#000000" offset="100%"></stop>
        </linearGradient>
        <linearGradient x1="50%" y1="0%" x2="50%" y2="123.279047%" id="linearGradient-2">
            <stop stop-color="#FAD961" offset="0%"></stop>
            <stop stop-color="#F76B1C" offset="100%"></stop>
        </linearGradient>
    </defs>
    <g id="Page-1" stroke="none" stroke-width="1" fill="none" fill-rule="evenodd">
        <g id="MGQ_app_icon">
            <rect id="Rectangle" stroke-opacity="0.01" stroke="#979797" x="0.5" y="0.5" width="511" height="511"></rect>
            <g id="Malu" transform="translate(56.000000, 115.000000)">
                <g id="path-6-link" fill-rule="nonzero" stroke="url(#linearGradient-1)" stroke-width="3">
                    <polygon id="path-6" points="65.4751481 261.718914 65.4751481 280.704122 0.474952631 280.704122 0.474952631 261.718914 25.5627474 261.718914 103.867077 19.1301522 88.6623523 19.1301522 88.6623523 0.144944477 146.820422 0.144944477 146.820422 19.1301522 131.23558 19.1301522 200.417074 233.944259 269.978687 19.1301522 254.773963 19.1301522 254.773963 0.144944477 312.551914 0.144944477 312.551914 19.1301522 297.347191 19.1301522 375.271402 261.718914 399.979078 261.718914 399.979078 280.704122 334.978883 280.704122 334.978883 261.718914 353.984788 261.718914 283.662939 42.6858726 212.580854 261.718914 231.966877 261.718914 231.966877 280.704122 166.966681 280.704122 166.966681 261.718914 188.253295 261.718914 117.551328 42.6858726 46.8493611 261.718914"></polygon>
                </g>
                <g id="path-6-link" fill="url(#linearGradient-2)">
                    <polygon id="path-6" points="65.4751481 261.718914 65.4751481 280.704122 0.474952631 280.704122 0.474952631 261.718914 25.5627474 261.718914 103.867077 19.1301522 88.6623523 19.1301522 88.6623523 0.144944477 146.820422 0.144944477 146.820422 19.1301522 131.23558 19.1301522 200.417074 233.944259 269.978687 19.1301522 254.773963 19.1301522 254.773963 0.144944477 312.551914 0.144944477 312.551914 19.1301522 297.347191 19.1301522 375.271402 261.718914 399.979078 261.718914 399.979078 280.704122 334.978883 280.704122 334.978883 261.718914 353.984788 261.718914 283.662939 42.6858726 212.580854 261.718914 231.966877 261.718914 231.966877 280.704122 166.966681 280.704122 166.966681 261.718914 188.253295 261.718914 117.551328 42.6858726 46.8493611 261.718914"></polygon>
                </g>
            </g>
        </g>
    </g>
</svg>