<svg height="512" viewBox="0 0 512 512" width="512" xmlns="http://www.w3.org/2000/svg" xmlns:xlink="http://www.w3.org/1999/xlink"><linearGradient id="a" x1="46.694975%" x2="46.694975%" y1="140.649491%" y2="-49.598976%"><stop offset="0" stop-opacity="0"/><stop offset="1"/></linearGradient><linearGradient id="b" x1="50%" x2="50%" y1="0%" y2="123.279047%"><stop offset="0" stop-color="#fad961"/><stop offset="1" stop-color="#f76b1c"/></linearGradient><g fill="none" fill-rule="evenodd"><path d="m.5.5h511v511h-511z" stroke="#979797" stroke-opacity=".01"/><g transform="translate(56 115)"><path d="m65.4751481 261.718914v18.985208h-65.00019547v-18.985208h25.08779477l78.3043296-242.5887618h-15.2047247v-18.98520772h58.1580697v18.98520772h-15.584842l69.181494 214.8141068 69.561613-214.8141068h-15.204724v-18.98520772h57.777951v18.98520772h-15.204723l77.924211 242.5887618h24.707676v18.985208h-65.000195v-18.985208h19.005905l-70.321849-219.0330414-71.082085 219.0330414h19.386023v18.985208h-65.000196v-18.985208h21.286614l-70.701967-219.0330414-70.7019669 219.0330414z" fill-rule="nonzero" stroke="url(#a)" stroke-width="3"/><path d="m65.4751481 261.718914v18.985208h-65.00019547v-18.985208h25.08779477l78.3043296-242.5887618h-15.2047247v-18.98520772h58.1580697v18.98520772h-15.584842l69.181494 214.8141068 69.561613-214.8141068h-15.204724v-18.98520772h57.777951v18.98520772h-15.204723l77.924211 242.5887618h24.707676v18.985208h-65.000195v-18.985208h19.005905l-70.321849-219.0330414-71.082085 219.0330414h19.386023v18.985208h-65.000196v-18.985208h21.286614l-70.701967-219.0330414-70.7019669 219.0330414z" fill="url(#b)"/></g></g></svg>