<svg height="1024" viewBox="0 0 1024 1024" width="1024" xmlns="http://www.w3.org/2000/svg"><g fill="none" fill-rule="evenodd"><path d="m.5.5h1023v1023h-1023z" stroke="#979797" stroke-opacity=".01"/><g stroke="#fff" stroke-width="10"><path d="m408 911.831692c0-45.138302-12.453202-96.346929-33.000985-136.504453-51.836453-101.016409-151.929064-166.700422-263.852217-173.082044l-19.146798-1.245195v166.077825 165.922175h158 158z"/><path d="m933 700.409478v-232.434839l-3.893519-23.196779c-7.319814-43.435579-17.910185-77.063125-36.599074-115.361162-23.984074-49.351537-57.156851-93.098483-97.182222-128.282859-32.238333-28.33432-56.533889-45.148093-91.887037-63.363013-44.074629-22.72973-83.944259-34.87301-140.166667-42.8128475-20.713518-2.8022954-32.394074-2.9579785-246.537592-2.9579785h-224.733889v105.553128 105.708812l26.008704-5.137542c57.624074-11.364864 106.526666-16.502406 156.986666-16.502406 93.132963 0 157.298149 20.2388 204.020371 64.452795 34.574444 32.537764 54.509259 76.751759 60.427407 133.264717 2.02463 18.68197 1.713148 22.574047-1.557407 15.412625-6.385371-14.011477-40.181111-39.543503-70.239074-53.243614-47.968148-21.639948-101.075741-32.84913-164.617963-34.561643-66.812778-1.712514-133.469815 9.029618-192.962778 30.980933l-18.065926 6.694372v63.363014 63.20733h52.64037c78.026111-.155683 129.420556 5.915957 179.880556 21.328582 139.232222 42.190115 208.381111 140.893188 215.856667 308.252499.778703 16.346724 1.090185 31.136616.622963 31.915032-.207655.415155 130.458827.415155 391.999444 0z"/></g></g></svg>