<svg height="851" viewBox="0 0 851 851" width="851" xmlns="http://www.w3.org/2000/svg"><g fill="none" fill-rule="evenodd" stroke="#000" stroke-width="10" transform="translate(5 5)"><path d="m316 819.831692c0-45.138302-12.453202-96.346929-33.000985-136.504453-51.836453-101.016409-151.929064-166.700422-263.852217-173.082044l-19.146798-1.245195v166.077825 165.922175h158 158z"/><path d="m841 608.409478v-232.434839l-3.893519-23.196779c-7.319814-43.435579-17.910185-77.063125-36.599074-115.361162-23.984074-49.351537-57.156851-93.098483-97.182222-128.282859-32.238333-28.3343203-56.533889-45.148093-91.887037-63.3630134-44.074629-22.7297297-83.944259-34.87301-140.166667-42.81284707-20.713518-2.80229545-32.394074-2.95797853-246.537592-2.95797853h-224.733889v105.553128 105.708812l26.0087037-5.137542c57.6240741-11.364864 106.5266663-16.502406 156.9866663-16.502406 93.132963 0 157.298149 20.2388 204.020371 64.452795 34.574444 32.537764 54.509259 76.751759 60.427407 133.264717 2.02463 18.68197 1.713148 22.574047-1.557407 15.412625-6.385371-14.011477-40.181111-39.543503-70.239074-53.243614-47.968148-21.639948-101.075741-32.84913-164.617963-34.561643-66.812778-1.712514-133.4698151 9.029618-192.9627781 30.980933l-18.0659259 6.694372v63.363014 63.20733h52.6403704c78.0261106-.155683 129.4205556 5.915957 179.8805556 21.328582 139.232222 42.190115 208.381111 140.893188 215.856667 308.252499.778703 16.346724 1.090185 31.136616.622963 31.915032-.207655.415155 130.458827.415155 391.999444 0z"/></g></svg>