<svg height="2100" viewBox="0 0 2970 2100" width="2970" xmlns="http://www.w3.org/2000/svg" xmlns:xlink="http://www.w3.org/1999/xlink"><linearGradient id="a"><stop offset="0" stop-color="#3023ae"/><stop offset="1" stop-color="#c86dd7"/></linearGradient><linearGradient id="b" x1="0%" x2="101.999998%" xlink:href="#a" y1="0%" y2="100.999999%"/><linearGradient id="c" x1="93.252841%" x2="29.438657%" xlink:href="#a" y1="3.943452%" y2="95.455357%"/><mask id="d" fill="#fff"><path d="m1684.63377 1934.13271v46.86729h-349.81689-349.81688v-367.35683-367.70143l42.3916 2.7569c247.80132 14.1291 469.40946 159.55554 584.17697 383.20899 45.49343 88.91 73.0652 202.28748 73.0652 302.22508zm1162.36623-468.09532v514.27324c-579.05901.91916-868.35864.91916-867.89889 0 1.03445-1.72344.34482-34.46872-1.37926-70.66087-16.55111-370.53869-169.64889-589.07034-477.91333-682.48056-111.72-34.12403-225.50889-47.56683-398.26111-47.22214h-116.54741v-139.94299-140.287669l39.99852-14.821547c131.71926-48.600889 279.3-72.384302 427.22555-68.592744 140.68445 3.791559 258.2663 28.609034 364.46926 76.520548 66.54926 30.33247 141.37408 86.861163 155.51148 117.883002 7.24112 15.85561 7.93075 7.23843 3.44815-34.124024-13.10296-125.121436-57.23926-223.012587-133.78815-295.052202-103.44444-97.891152-245.50814-142.700482-451.7074-142.700482-111.72 0-219.99185 11.374676-347.57334 36.536838l-57.58407 11.374676v-234.042576-233.69789h497.56778c474.12037 0 499.98148.344687 545.84185 6.549056 124.47815 17.579045 212.75074 44.464643 310.33333 94.788967 78.27297 40.328397 132.06408 77.554609 203.44074 140.287671 88.61741 77.899297 162.06297 174.756387 215.16445 284.022214 41.37778 84.79304 64.82518 159.245465 81.03148 255.41318l8.62037 51.358386z" fill="#fff" fill-rule="evenodd"/></mask><g fill="none" fill-rule="evenodd"><path d="m0 0h2970v2100h-2970z" fill="url(#b)"/><path d="m2.5-1.5h2969v2099h-2969z" fill="url(#c)" mask="url(#d)" stroke="#979797" stroke-opacity=".01"/></g></svg>